<svg width="24" height="24" viewBox="0 0 24 24" fill="none" xmlns="http://www.w3.org/2000/svg">
<path d="M4.07483 3L5.51741 19.1952L11.9904 21L18.4815 19.1886L19.9252 3H4.07483ZM16.9283 6.71038L16.4481 12.1055L16.4496 12.1346L16.4476 12.2016V12.2011L16.1064 15.9734L16.0688 16.3086L12 17.4339L11.9969 17.4368L7.93514 16.3051L7.66011 13.1863H9.65188L9.7932 14.7722L12.0006 15.3704L12 15.3716V15.3713L14.2156 14.7646L14.4498 12.182H9.81816L9.77842 11.7454L9.68789 10.7226L9.64041 10.1734H14.6258L14.8071 8.16487H7.21392L7.17418 7.72858L7.0838 6.70551L7.03616 6.15631H16.9758L16.9283 6.71038Z" fill="#3996DB"/>
</svg>
