<svg width="24" height="24" viewBox="0 0 24 24" fill="none" xmlns="http://www.w3.org/2000/svg">
<path d="M12.5611 18.9433C12.3877 18.7901 12.2069 18.6363 12.0341 18.4659C11.896 18.5936 11.7666 18.7132 11.6297 18.8322C9.92006 20.306 8.15785 20.9196 7.11324 20.3231C6.10271 19.7523 5.78436 18.066 6.1888 15.9445C6.23194 15.7145 6.28375 15.4846 6.34422 15.2546C6.1628 15.2012 5.99005 15.1521 5.81729 15.0944C3.66624 14.3602 2.25012 13.1678 2.25012 11.9749C2.25012 10.8253 3.57149 9.70926 5.63529 8.99373C5.8664 8.91684 6.11022 8.84048 6.36098 8.77213C6.3032 8.55053 6.25756 8.33747 6.21422 8.13136C5.78205 5.97783 6.08422 4.25736 7.10341 3.678C8.16536 3.06446 9.92757 3.72072 11.6973 5.26231C11.8007 5.35575 11.9047 5.45827 12.0168 5.56026C12.1809 5.40701 12.3363 5.25376 12.5004 5.1176C14.1759 3.67586 15.8422 3.073 16.8614 3.65237C17.9234 4.24829 18.2348 6.08837 17.7599 8.3631C17.7339 8.50835 17.7021 8.64451 17.6651 8.79029C17.8812 8.85009 18.0967 8.91791 18.2955 8.98625C20.4026 9.70178 21.7673 10.8178 21.75 11.9931C21.75 13.194 20.2905 14.3783 18.0522 15.111C17.9315 15.1451 17.8107 15.1879 17.6894 15.2215C17.7414 15.3918 17.7755 15.5622 17.8101 15.7325C18.2591 17.9389 17.9135 19.7448 16.8689 20.3413C16.5946 20.4939 16.2791 20.5717 15.9589 20.5655C15.0016 20.5639 13.7859 19.9814 12.5611 18.9433ZM14.2539 15.8169C13.7579 16.5301 13.2127 17.213 12.6217 17.8615C12.7858 18.0217 12.9499 18.1685 13.114 18.3047C14.5388 19.5141 15.8515 19.9659 16.4651 19.6167C16.6525 19.4675 16.8056 19.2851 16.9153 19.0803C17.0251 18.8755 17.0893 18.6524 17.1041 18.4243C17.2288 17.5789 17.1936 16.72 17.0001 15.8858C16.9741 15.7325 16.9423 15.5793 16.8967 15.4175C16.0265 15.6057 15.1436 15.7391 14.2539 15.8169ZM7.01675 16.0897C6.66315 17.9053 6.92199 19.2584 7.53674 19.6081C7.75454 19.6922 7.98969 19.7311 8.22553 19.7218C8.46137 19.7126 8.69212 19.6555 8.90144 19.5547C9.71577 19.2384 10.4574 18.7815 11.0866 18.2086C11.216 18.106 11.3368 17.987 11.4668 17.8679C10.8628 17.2192 10.3032 16.5363 9.79121 15.8233C8.90493 15.7549 8.02481 15.63 7.15715 15.4495C7.10341 15.6722 7.06008 15.8847 7.01675 16.0897ZM12.0434 17.2821C12.4235 16.8645 12.8031 16.4048 13.1833 15.8938C12.8031 15.9109 12.4062 15.9194 12.0087 15.9194C11.6112 15.9194 11.2403 15.9109 10.8688 15.8938C11.257 16.3957 11.6464 16.8645 12.0434 17.2821ZM10.2292 8.9681C9.90099 9.4364 9.58148 9.92926 9.27931 10.4504C8.97713 10.9614 8.70153 11.481 8.4502 11.9989C8.70962 12.51 8.9858 13.0295 9.28797 13.5582C9.59015 14.0692 9.90966 14.5727 10.2378 15.0485C10.8075 15.0827 11.4038 15.1019 12.0081 15.1019C12.6125 15.1019 13.2168 15.0848 13.7958 15.0426C14.1066 14.5743 14.4261 14.0713 14.7289 13.5518C15.0316 13.0322 15.3159 12.5041 15.5666 11.9931C15.3159 11.4906 15.031 10.971 14.7289 10.451C14.4267 9.93086 14.1072 9.4364 13.7877 8.96863C13.2099 8.92592 12.6131 8.90029 12.0087 8.90029C11.4044 8.90029 10.8081 8.92538 10.2292 8.9681ZM7.37959 14.6667C7.97212 14.7918 8.57185 14.8857 9.17589 14.9481C8.96847 14.6245 8.76162 14.3004 8.56287 13.9597C8.37278 13.6276 8.18269 13.2954 8.00994 12.9633C7.75977 13.5421 7.55234 14.114 7.37959 14.6667ZM15.454 13.9512C15.2552 14.2918 15.0565 14.6154 14.8583 14.931C15.4714 14.86 16.0797 14.7577 16.6806 14.6245C16.493 14.0495 16.2739 13.4836 16.0242 12.9291C15.8428 13.2698 15.6527 13.6105 15.454 13.9512ZM5.9028 9.77707C4.14117 10.3906 3.07923 11.284 3.07923 11.9835C3.11281 12.2085 3.19415 12.4252 3.31859 12.6211C3.44302 12.817 3.60809 12.9883 3.80433 13.1251C4.47835 13.6489 5.25128 14.0532 6.08422 14.3175C6.23964 14.3709 6.40373 14.4115 6.56782 14.4627C6.83309 13.6248 7.15319 12.8026 7.52634 12.0006C7.15247 11.2123 6.83517 10.4021 6.57649 9.57523C6.34345 9.6329 6.11889 9.70018 5.9028 9.77707ZM16.4992 11.9835C16.8824 12.7753 17.2104 13.589 17.4814 14.4195C17.594 14.3853 17.7061 14.3511 17.8095 14.3169C19.7353 13.6868 20.9295 12.7241 20.9359 11.9744C20.9359 11.2759 19.8306 10.3725 18.0256 9.75945C17.8442 9.70018 17.646 9.64038 17.4479 9.58057C17.1862 10.3991 16.8694 11.2016 16.4992 11.9835ZM15.4459 10.0243C15.6446 10.365 15.8347 10.6976 16.0069 11.0298C16.2468 10.487 16.4544 9.9324 16.6286 9.36858C16.042 9.23686 15.4481 9.13454 14.8496 9.06208C15.057 9.37659 15.2558 9.69217 15.4459 10.0243ZM7.38826 9.36164C7.56159 9.90683 7.76843 10.4606 8.00994 11.0308C8.18327 10.6987 8.37278 10.3666 8.56287 10.0344C8.75296 9.70232 8.95113 9.37873 9.15855 9.06315C8.53687 9.13844 7.94985 9.24043 7.38826 9.36164ZM13.0447 5.74128C12.8979 5.8689 12.7511 6.00507 12.6038 6.14176C13.2035 6.78226 13.7547 7.46024 14.2534 8.17087C15.1322 8.24928 16.0038 8.38597 16.8614 8.5799C16.8961 8.45228 16.9192 8.32412 16.9481 8.1965C17.3525 6.23735 17.1035 4.73794 16.4472 4.36362C16.3031 4.28889 16.1397 4.25196 15.9745 4.25683C15.2691 4.25362 14.1863 4.76144 13.0447 5.73968V5.74128ZM7.51768 4.38498C6.90466 4.7342 6.66257 6.13108 7.02542 7.97117C7.06875 8.16714 7.11208 8.36257 7.1635 8.56708C8.02229 8.38029 8.89357 8.2465 9.77157 8.1666C10.2721 7.45508 10.8262 6.77703 11.4298 6.13749C11.335 6.04351 11.231 5.95861 11.1363 5.87317C9.9345 4.82284 8.77896 4.26858 8.02439 4.26858C7.84705 4.26299 7.67154 4.3033 7.51768 4.38498ZM13.1654 8.09879C12.8093 7.62254 12.425 7.16477 12.0145 6.72754C11.6262 7.14457 11.2374 7.60486 10.8589 8.09879C11.2391 8.0817 11.6187 8.07316 12.0076 8.07316C12.3964 8.07316 12.7852 8.0801 13.1654 8.09879ZM10.2812 12.0176C10.2731 11.7987 10.3118 11.5804 10.3951 11.3754C10.4785 11.1703 10.6048 10.9824 10.7668 10.8226C10.9289 10.6627 11.1235 10.5339 11.3394 10.4437C11.5554 10.3534 11.7885 10.3035 12.0255 10.2966C12.5035 10.3117 12.9555 10.5013 13.2825 10.8239C13.6095 11.1465 13.7847 11.5758 13.7698 12.0176C13.7852 12.4598 13.6101 12.8896 13.2829 13.2126C12.9558 13.5356 12.5033 13.7253 12.0249 13.7402C11.7878 13.7334 11.5546 13.6834 11.3385 13.593C11.1225 13.5027 10.9278 13.3738 10.7658 13.2137C10.6038 13.0537 10.4776 12.8656 10.3944 12.6604C10.3112 12.4551 10.2728 12.2367 10.2812 12.0176Z" fill="#3996DB"/>
</svg>
